<svg xmlns="http://www.w3.org/2000/svg" width="476.142" height="164.7" viewBox="0 0 476.142 164.7">
  <g id="Group_2199" data-name="Group 2199" transform="translate(-390.727 -3991.431)">
    <g id="mango_3_" data-name="mango (3)" transform="translate(344.933 3977.992) rotate(11)">
      <path id="Path_3044" data-name="Path 3044" d="M195.039,20.564A20.564,20.564,0,0,0,174.475,0,20.564,20.564,0,0,0,195.039,20.564Z" transform="translate(-54.524)" fill="#44c4a1"/>
      <path id="Path_3045" data-name="Path 3045" d="M189.386,11.28a3.99,3.99,0,0,1-.221,2.6,61.439,61.439,0,0,0-9.726-8.485l6.64,6.615a3.864,3.864,0,0,1-2.476-.061.457.457,0,0,0-.493.769c.12.079,1.23.735,3.711.059.007,0,.01-.009.016-.011l4.037,4.022a3.968,3.968,0,0,1-2.584-.037.457.457,0,0,0-.493.769c.119.079,1.23.735,3.711.059.04-.011.061-.045.1-.064l5.053,5.034s-2.818-3.706-6.795-7.938c.009-.017.029-.025.036-.043.914-2.4.368-3.572.3-3.7a.457.457,0,0,0-.813.415Z" transform="translate(-57.939 -3.71)" fill="#3ea69b"/>
      <path id="Path_3046" data-name="Path 3046" d="M227.54,49.689c1.532-9,11.7-14.479,12.236-14.763a3.183,3.183,0,0,0-2.941-5.646c-5.584,2.905-14.489,10.3-15.716,20.409h6.421Z" transform="translate(-86.614 -19.897)" fill="#64798a"/>
      <path id="Path_3047" data-name="Path 3047" d="M159.158,194.039a27,27,0,0,1-3.513,3.31c-19.426,15.123-31.621,12.17-38.775,6.11a26.8,26.8,0,0,1-2.7-2.673,25.185,25.185,0,0,1-5.932-15.861,77.98,77.98,0,0,0-7.231-29.711c-24.7-66.628,37.681-64.667,37.681-64.667a41.953,41.953,0,0,1,15.861,2.393c18.942,6.8,24.441,25.867,24.441,25.867S193.147,155.977,159.158,194.039Z" transform="translate(0 -62.279)" fill="#f6c358"/>
      <path id="Path_3048" data-name="Path 3048" d="M150.732,189.711a26.7,26.7,0,0,1-3.514,3.284c-13.239,10.337-23.118,12.246-30.347,10.464a26.8,26.8,0,0,1-2.7-2.673,25.185,25.185,0,0,1-5.932-15.861,77.98,77.98,0,0,0-7.231-29.711c-24.7-66.627,37.68-64.667,37.68-64.667a41.953,41.953,0,0,1,15.861,2.393,43.623,43.623,0,0,1,15.988,21.539S184.72,151.648,150.732,189.711Z" transform="translate(0 -62.279)" fill="#fcd462"/>
      <path id="Path_3049" data-name="Path 3049" d="M134.382,164.424c0,11.375,4.222,20.6,1.845,20.6s-10.452-9.221-10.452-20.6,8.075-20.6,10.452-20.6S134.382,153.049,134.382,164.424Z" transform="translate(-21.019 -98.952)" fill="#ebf0f3"/>
    </g>
    <path id="Path_3052" data-name="Path 3052" d="M257.6,97.8a3.8,3.8,0,1,1-3.8-3.8A3.8,3.8,0,0,1,257.6,97.8Zm0,0" transform="translate(550.479 3944.95)" fill="#9bf38d"/>
    <path id="Path_3053" data-name="Path 3053" d="M307.6,247.8a3.8,3.8,0,1,1-3.8-3.8A3.8,3.8,0,0,1,307.6,247.8Zm0,0" transform="translate(513.149 3832.959)" fill="#ff455a"/>
    <path id="Path_3054" data-name="Path 3054" d="M22.6,87.8A3.8,3.8,0,1,1,18.8,84,3.8,3.8,0,0,1,22.6,87.8Zm0,0" transform="translate(725.932 3952.416)" fill="#ff455a"/>
    <path id="Path_3055" data-name="Path 3055" d="M337.6,470.8a3.8,3.8,0,1,1-3.8-3.8A3.8,3.8,0,0,1,337.6,470.8Zm0,0" transform="translate(490.751 3666.466)" fill="#ff455a"/>
    <path id="Path_3056" data-name="Path 3056" d="M377.6,357.8a3.8,3.8,0,1,1-3.8-3.8A3.8,3.8,0,0,1,377.6,357.8Zm0,0" transform="translate(460.887 3750.833)" fill="#ffe54e"/>
    <g id="Group_2197" data-name="Group 2197" transform="translate(830.887 4021.213)">
      <path id="Path_3057" data-name="Path 3057" d="M489.6,168.3a3.8,3.8,0,1,1-3.8-3.8A3.8,3.8,0,0,1,489.6,168.3Zm0,0" transform="translate(-453.62 -128.898)" fill="#9bf38d"/>
      <path id="Path_3058" data-name="Path 3058" d="M467.6,427.8a3.8,3.8,0,1,1-3.8-3.8A3.8,3.8,0,0,1,467.6,427.8Zm0,0" transform="translate(-437.195 -322.643)" fill="#9bf38d"/>
      <path id="Path_3059" data-name="Path 3059" d="M377.6,27.8a3.8,3.8,0,1,1-3.8-3.8A3.8,3.8,0,0,1,377.6,27.8Zm0,0" transform="translate(-370 -24)" fill="#9bf38d"/>
    </g>
    <path id="Path_3060" data-name="Path 3060" d="M257.6,3.8A3.8,3.8,0,1,1,253.8,0,3.8,3.8,0,0,1,257.6,3.8Zm0,0" transform="translate(550.479 4015.131)" fill="#ffe54e"/>
    <path id="Path_3061" data-name="Path 3061" d="M358.937,176.738a3.8,3.8,0,0,0,3.8-3.8A13.952,13.952,0,0,0,348.8,159a3.8,3.8,0,0,0,0,7.6,6.342,6.342,0,0,1,6.335,6.335A3.8,3.8,0,0,0,358.937,176.738Zm0,0" transform="translate(479.552 3896.421)" fill="#ffe54e"/>
    <path id="Path_3062" data-name="Path 3062" d="M438.8,286.738a3.8,3.8,0,0,0,3.8-3.8,6.342,6.342,0,0,1,6.335-6.335,3.8,3.8,0,0,0,0-7.6A13.953,13.953,0,0,0,435,282.937,3.8,3.8,0,0,0,438.8,286.738Zm0,0" transform="translate(412.357 3814.294)" fill="#9bf38d"/>
    <path id="Path_3063" data-name="Path 3063" d="M108.937,36.738a3.8,3.8,0,0,0,0-7.6A6.342,6.342,0,0,1,102.6,22.8a3.8,3.8,0,0,0-7.6,0A13.952,13.952,0,0,0,108.937,36.738Zm0,0" transform="translate(666.203 4000.946)" fill="#9bf38d"/>
    <path id="Path_3064" data-name="Path 3064" d="M158.937,136.738a3.8,3.8,0,0,0,3.8-3.8A13.952,13.952,0,0,0,148.8,119a3.8,3.8,0,1,0,0,7.6,6.342,6.342,0,0,1,6.335,6.335A3.8,3.8,0,0,0,158.937,136.738Zm0,0" transform="translate(628.873 3926.285)" fill="#9bf38d"/>
    <path id="Path_3065" data-name="Path 3065" d="M428.8,66.738A13.952,13.952,0,0,0,442.738,52.8a3.8,3.8,0,0,0-7.6,0,6.342,6.342,0,0,1-6.335,6.335,3.8,3.8,0,1,0,0,7.6Zm0,0" transform="translate(419.823 3978.548)" fill="#ff455a"/>
    <text id="Lets_celebrate_season_of_the_king" data-name="Lets celebrate 
season of the king" transform="translate(524 4078)" fill="#4e3ec8" font-size="40" font-family="Ubuntu-Medium, Ubuntu" font-weight="500"><tspan x="0" y="0">Lets celebrate </tspan><tspan x="0" y="40">season of the king</tspan></text>
    <path id="Path_3066" data-name="Path 3066" d="M15,87.8A3.8,3.8,0,1,0,18.8,84,3.8,3.8,0,0,0,15,87.8Zm0,0" transform="matrix(0.875, -0.485, 0.485, 0.875, 440.915, 3928.921)" fill="#ff455a"/>
    <g id="Group_2198" data-name="Group 2198" transform="matrix(0.875, -0.485, 0.485, 0.875, 383.889, 4039.19)">
      <path id="Path_3057-2" data-name="Path 3057" d="M482,168.3a3.8,3.8,0,1,0,3.8-3.8A3.8,3.8,0,0,0,482,168.3Zm0,0" transform="translate(-482 -128.898)" fill="#9bf38d"/>
      <path id="Path_3058-2" data-name="Path 3058" d="M460,427.8a3.8,3.8,0,1,0,3.8-3.8A3.8,3.8,0,0,0,460,427.8Zm0,0" transform="translate(-454.425 -322.643)" fill="#9bf38d"/>
      <path id="Path_3059-2" data-name="Path 3059" d="M370,27.8a3.8,3.8,0,1,0,3.8-3.8A3.8,3.8,0,0,0,370,27.8Zm0,0" transform="translate(-341.62 -24)" fill="#9bf38d"/>
    </g>
    <path id="Path_3067" data-name="Path 3067" d="M250,3.8A3.8,3.8,0,1,0,253.8,0,3.8,3.8,0,0,0,250,3.8Zm0,0" transform="matrix(0.875, -0.485, 0.485, 0.875, 213.703, 4126.572)" fill="#ffe54e"/>
    <path id="Path_3069" data-name="Path 3069" d="M438.937,66.738A13.952,13.952,0,0,1,425,52.8a3.8,3.8,0,0,1,7.6,0,6.342,6.342,0,0,0,6.335,6.335,3.8,3.8,0,1,1,0,7.6Zm0,0" transform="matrix(0.875, -0.485, 0.485, 0.875, -4.742, 4205.831)" fill="#ff455a"/>
  </g>
</svg>
