<svg xmlns="http://www.w3.org/2000/svg" xmlns:xlink="http://www.w3.org/1999/xlink" width="15.088" height="15.877" viewBox="0 0 15.088 15.877">
  <defs>
    <linearGradient id="linear-gradient" x1="0.861" y1="0.099" x2="0.099" y2="0.913" gradientUnits="objectBoundingBox">
      <stop offset="0" stop-color="#d75010"/>
      <stop offset="1" stop-color="#fcc51b"/>
    </linearGradient>
  </defs>
  <g id="Group_2232" data-name="Group 2232" transform="translate(-20328.551 -8289.766)">
    <path id="Subtraction_17" data-name="Subtraction 17" d="M3.695,13.4a4.93,4.93,0,0,1-2.49-.59A2.326,2.326,0,0,1,.066,11.393,2.436,2.436,0,0,1,.539,9.35,5.86,5.86,0,0,0,1.621,5.633c0-.033,0-.065,0-.1A5.456,5.456,0,0,1,2.9,1.759,4.907,4.907,0,0,1,6.35.01C6.453,0,6.558,0,6.661,0a5.442,5.442,0,0,1,5.281,5.185,5.92,5.92,0,0,1-.58,2.92A8.966,8.966,0,0,1,9.692,10.5,11.5,11.5,0,0,1,7.6,12.222a7.251,7.251,0,0,1-1.939.914l-.211.052-.025.006A7.709,7.709,0,0,1,3.695,13.4ZM7.255,5.746h0c.04.474.07.957.09,1.436.021.505.037.937.048,1.32h.913c-.017-.333-.035-.677-.058-1.05-.02-.351-.044-.715-.072-1.112-.024-.35-.054-.71-.09-1.068-.033-.34-.07-.651-.111-.927H7.124c-.07.128-.154.293-.248.489s-.195.409-.294.63-.193.435-.3.693L6,6.822l-.255-.6-.026-.062c-.093-.22-.193-.447-.3-.693-.1-.221-.2-.433-.294-.63s-.177-.357-.248-.489H3.974c-.039.269-.076.581-.111.927-.033.33-.063.689-.09,1.068C3.751,6.662,3.729,7,3.7,7.452c-.021.37-.041.723-.057,1.05h.912c.012-.413.028-.845.048-1.32s.051-.966.09-1.44c.078.182.165.384.24.558q.132.306.261.612t.249.585q.107.248.184.432l.019.045H6.3l.064-.151.14-.326c.077-.178.158-.37.248-.585l.254-.6L7.016,6.3Q7.148,6,7.255,5.746Z" transform="translate(20328.551 8292.245)" fill="url(#linear-gradient)"/>
    <g id="Group_2210" data-name="Group 2210" transform="translate(20339.307 8291.94) rotate(-11)">
      <path id="Path_3010" data-name="Path 3010" d="M5.264.981A5.525,5.525,0,0,0,4.191.356,3.276,3.276,0,0,0,1.836.128,3.619,3.619,0,0,0,0,1.755l0,0A7.83,7.83,0,0,1,1.976,4.55c.086.007.171.011.255.011a2.568,2.568,0,0,0,.816-.128A3.619,3.619,0,0,0,4.88,2.806a6.375,6.375,0,0,0,.568-1.174A.592.592,0,0,0,5.264.981Z" transform="translate(-1.667 -1.474)" fill="#81b03f"/>
    </g>
  </g>
</svg>
