<svg xmlns="http://www.w3.org/2000/svg" xmlns:xlink="http://www.w3.org/1999/xlink" width="158.953" height="51.075" viewBox="0 0 158.953 51.075">
  <defs>
    <linearGradient id="linear-gradient" x1="0.978" y1="0.677" x2="0.022" y2="0.252" gradientUnits="objectBoundingBox">
      <stop offset="0" stop-color="#d75010"/>
      <stop offset="1" stop-color="#fcc51b"/>
    </linearGradient>
  </defs>
  <g id="Group_2212" data-name="Group 2212" transform="translate(-19436 -6370.081)">
    <path id="Union_56" data-name="Union 56" d="M80.8,32.958a22.728,22.728,0,0,1-3.362-.85l.983-4.722a16.63,16.63,0,0,0,2.777.832,16.38,16.38,0,0,0,3.3.3,4.576,4.576,0,0,0,3.419-1.058,3.8,3.8,0,0,0,1-2.72v-.717a9,9,0,0,1-1.87.623,9.934,9.934,0,0,1-2.1.208,8.043,8.043,0,0,1-6.308-2.436A9.838,9.838,0,0,1,76.454,15.6a11.164,11.164,0,0,1,.68-3.985,8.489,8.489,0,0,1,1.983-3.079A8.871,8.871,0,0,1,82.31,6.554a12.232,12.232,0,0,1,4.269-.7q1.019,0,2.1.094t2.134.246q1.057.151,2.021.359t1.719.435v16.7q0,4.874-2.475,7.234t-7.649,2.361A20.83,20.83,0,0,1,80.8,32.958Zm2.493-21.1a6.094,6.094,0,0,0-1.1,3.74q0,4.722,3.815,4.722a5.625,5.625,0,0,0,1.625-.227,6.138,6.138,0,0,0,1.284-.529v-8.99q-.417-.076-.982-.132t-1.322-.057A3.875,3.875,0,0,0,83.291,11.861Zm62.8,14.392a17.881,17.881,0,0,1-2.436-.755l.944-4.571a18.482,18.482,0,0,0,2.947.888,14.379,14.379,0,0,0,2.984.32,5.619,5.619,0,0,0,2.191-.3,1.167,1.167,0,0,0,.643-1.172,1.437,1.437,0,0,0-.832-1.19A15.862,15.862,0,0,0,150,18.32a25.673,25.673,0,0,1-2.4-1.02,7.064,7.064,0,0,1-1.831-1.265,5.105,5.105,0,0,1-1.172-1.757,6.5,6.5,0,0,1-.415-2.455,5.31,5.31,0,0,1,2.077-4.42,9.045,9.045,0,0,1,5.7-1.624,18.349,18.349,0,0,1,3.475.32,16.27,16.27,0,0,1,2.644.7l-.982,4.382a20.706,20.706,0,0,0-2.134-.6,11.649,11.649,0,0,0-2.588-.265q-2.645,0-2.644,1.473a1.539,1.539,0,0,0,.113.6,1.3,1.3,0,0,0,.454.509,6.293,6.293,0,0,0,.925.531q.586.286,1.492.628a23.094,23.094,0,0,1,3.06,1.353,7.318,7.318,0,0,1,1.908,1.438,4.465,4.465,0,0,1,.982,1.715,7.609,7.609,0,0,1,.284,2.186,5.037,5.037,0,0,1-2.21,4.448,11.024,11.024,0,0,1-6.251,1.507A17.956,17.956,0,0,1,146.091,26.253Zm-18.434-.34a9.066,9.066,0,0,1-3.286-2.172,8.614,8.614,0,0,1-1.927-3.267,12.943,12.943,0,0,1-.623-4.08,12.145,12.145,0,0,1,.812-4.628,9.912,9.912,0,0,1,2.134-3.3,8.875,8.875,0,0,1,3.041-2,9.513,9.513,0,0,1,3.532-.68,8.78,8.78,0,0,1,6.686,2.588q2.456,2.587,2.456,7.611c0,.328-.014.686-.038,1.076s-.051.737-.076,1.039H127.6a3.738,3.738,0,0,0,1.624,2.758,6.524,6.524,0,0,0,3.853,1.02,16.264,16.264,0,0,0,3.041-.283,11.43,11.43,0,0,0,2.436-.7l.755,4.571a7.647,7.647,0,0,1-1.209.453,15.842,15.842,0,0,1-1.68.4q-.927.17-1.984.284a19.822,19.822,0,0,1-2.115.113A12.512,12.512,0,0,1,127.657,25.913Zm2.135-15.166a3.357,3.357,0,0,0-1.134.85,3.834,3.834,0,0,0-.7,1.228,8.013,8.013,0,0,0-.359,1.417h7.442a5.858,5.858,0,0,0-.246-1.4,3.511,3.511,0,0,0-.643-1.209,3.425,3.425,0,0,0-1.1-.868,3.567,3.567,0,0,0-1.643-.34A3.783,3.783,0,0,0,129.792,10.747ZM37.982,26.253a7.578,7.578,0,0,1-2.7-1.114,5.088,5.088,0,0,1-1.738-2.02,6.975,6.975,0,0,1-.6-3.06,5.8,5.8,0,0,1,.7-2.947,5.384,5.384,0,0,1,1.87-1.927,8.448,8.448,0,0,1,2.682-1.039,15.085,15.085,0,0,1,3.135-.32,18.041,18.041,0,0,1,1.946.094,8.794,8.794,0,0,1,1.379.246v-.528a3.116,3.116,0,0,0-.869-2.3,4.208,4.208,0,0,0-3.021-.869,19.336,19.336,0,0,0-2.833.208,12.192,12.192,0,0,0-2.417.585L34.79,6.724c.327-.1.737-.208,1.228-.321s1.026-.213,1.606-.3,1.19-.164,1.832-.227,1.29-.094,1.945-.094a13.031,13.031,0,0,1,4.155.566A6.458,6.458,0,0,1,48.218,7.97a5.975,5.975,0,0,1,1.417,2.569,12.663,12.663,0,0,1,.416,3.361V25.611q-1.21.265-3.362.623a32.383,32.383,0,0,1-5.213.359A16.506,16.506,0,0,1,37.982,26.253ZM40.891,17.7a3.917,3.917,0,0,0-1.229.358,2.105,2.105,0,0,0-.831.718,2,2,0,0,0-.3,1.133,1.93,1.93,0,0,0,.888,1.832,4.91,4.91,0,0,0,2.436.509q.83,0,1.587-.038a10.615,10.615,0,0,0,1.209-.113V17.83q-.34-.076-1.021-.151a11.338,11.338,0,0,0-1.247-.076A11.135,11.135,0,0,0,40.891,17.7Zm59.658,7.6a3.867,3.867,0,0,1-1.889-2.346,4.043,4.043,0,0,1,.787-3.389,9.733,9.733,0,0,0,1.795-6.165c0-.054-.006-.108-.008-.163a9.049,9.049,0,0,1,2.128-6.266,8.146,8.146,0,0,1,5.725-2.9,8.994,8.994,0,0,1,9.279,8.585A9.831,9.831,0,0,1,117.4,17.5a14.865,14.865,0,0,1-2.771,3.968,19.109,19.109,0,0,1-3.472,2.863,12.024,12.024,0,0,1-3.217,1.515c-.131.034-.262.066-.392.1a12.814,12.814,0,0,1-2.87.338A8.212,8.212,0,0,1,100.549,25.3Zm-33.878.878V15.638a7.594,7.594,0,0,0-.717-3.853,2.931,2.931,0,0,0-2.682-1.133q-.606,0-1.284.057t-1.209.132V26.177H55.15V6.989a31.516,31.516,0,0,1,3.7-.775,30.4,30.4,0,0,1,4.759-.358,11.606,11.606,0,0,1,4.212.661,6.329,6.329,0,0,1,2.663,1.87,7.3,7.3,0,0,1,1.4,2.87,15.32,15.32,0,0,1,.416,3.7V26.177Zm-43.025,0q-.113-3.815-.3-8.311T22.778,8.8q-.683,1.588-1.516,3.514t-1.649,3.853q-.814,1.926-1.572,3.683t-1.289,3H12.635q-.531-1.247-1.288-3T9.774,16.168q-.814-1.926-1.648-3.853T6.611,8.8q-.378,4.571-.567,9.066t-.3,8.311H0q.15-3.1.359-6.611T.812,12.56q.246-3.492.567-6.723T2.077,0H7.706q.682,1.246,1.572,3.079t1.855,3.966q.967,2.134,1.913,4.362t1.78,4.193q.833-1.963,1.78-4.193t1.912-4.362q.967-2.134,1.857-3.966T21.947,0h5.364q.378,2.607.7,5.837t.566,6.723q.246,3.5.454,7.007t.359,6.611Z" transform="translate(19436 6387.876)" fill="url(#linear-gradient)"/>
    <g id="Group_2210" data-name="Group 2210" transform="translate(19549.215 6389.43) rotate(-11)">
      <path id="Path_3010" data-name="Path 3010" d="M7.751,1.32A8.32,8.32,0,0,0,6.17.479,5.237,5.237,0,0,0,2.7.172,5.214,5.214,0,0,0,0,2.362l0,.006A10.608,10.608,0,0,1,2.909,6.125c.127.01.252.015.375.015a4.107,4.107,0,0,0,1.2-.172,5.214,5.214,0,0,0,2.7-2.191A8.265,8.265,0,0,0,8.021,2.2a.756.756,0,0,0-.269-.877Z" transform="translate(0 0)" fill="#81b03f"/>
    </g>
    <path id="Path_3076" data-name="Path 3076" d="M58.763,2.8a1.5,1.5,0,0,1-1.981,0,1.3,1.3,0,0,1-.42-1.022,1.3,1.3,0,0,1,.42-1.022,1.5,1.5,0,0,1,1.981,0,1.3,1.3,0,0,1,.42,1.022A1.3,1.3,0,0,1,58.763,2.8ZM52.1,8.1a3.186,3.186,0,0,0-.3-1.617,1.229,1.229,0,0,0-1.125-.475q-.254,0-.539.024t-.507.055v6.435H47.265V4.473a13.208,13.208,0,0,1,1.553-.325,12.763,12.763,0,0,1,2-.151,4.87,4.87,0,0,1,1.767.277A2.657,2.657,0,0,1,53.7,5.06a3.061,3.061,0,0,1,.586,1.2,6.41,6.41,0,0,1,.174,1.553v4.707H52.1ZM41.528,12.7a6.934,6.934,0,0,1-1.466-.143,3.182,3.182,0,0,1-1.133-.468,2.138,2.138,0,0,1-.729-.848,2.927,2.927,0,0,1-.254-1.284,2.434,2.434,0,0,1,.293-1.236,2.257,2.257,0,0,1,.785-.808,3.55,3.55,0,0,1,1.125-.436,6.327,6.327,0,0,1,1.315-.135,7.524,7.524,0,0,1,.816.04,3.658,3.658,0,0,1,.578.1V7.263a1.307,1.307,0,0,0-.365-.967,1.765,1.765,0,0,0-1.268-.365,8.1,8.1,0,0,0-1.189.087,5.114,5.114,0,0,0-1.014.246l-.3-1.9q.206-.063.515-.135t.674-.127q.365-.055.769-.1t.816-.04a5.469,5.469,0,0,1,1.743.238,2.71,2.71,0,0,1,1.117.681,2.506,2.506,0,0,1,.594,1.078,5.317,5.317,0,0,1,.174,1.411v4.913q-.507.111-1.411.262A13.579,13.579,0,0,1,41.528,12.7Zm1.331-3.677q-.143-.032-.428-.063a4.766,4.766,0,0,0-.523-.032,4.717,4.717,0,0,0-.626.04,1.641,1.641,0,0,0-.515.151.884.884,0,0,0-.349.3.839.839,0,0,0-.127.475.81.81,0,0,0,.372.769,2.058,2.058,0,0,0,1.022.214q.349,0,.666-.016a4.524,4.524,0,0,0,.507-.048Zm-7.116,2.457a3.148,3.148,0,0,1-1.141.888,3.685,3.685,0,0,1-1.569.317,4.232,4.232,0,0,1-.919-.1,4.408,4.408,0,0,1-.824-.269v3.138H28.928V4.473q.317-.1.729-.182t.864-.151q.452-.063.919-.1t.9-.04a5.12,5.12,0,0,1,1.838.309,3.781,3.781,0,0,1,1.363.872,3.737,3.737,0,0,1,.848,1.371,5.269,5.269,0,0,1,.293,1.807,6.108,6.108,0,0,1-.238,1.759A3.957,3.957,0,0,1,35.743,11.479Zm-1.965-4.81a1.705,1.705,0,0,0-1.458-.658q-.317,0-.586.024t-.444.055v4.263a2.052,2.052,0,0,0,.578.238,2.787,2.787,0,0,0,.721.1q1.68,0,1.68-2.266A2.857,2.857,0,0,0,33.778,6.669Zm-8.2,5.793a2.473,2.473,0,0,1-1.014-.578,1.913,1.913,0,0,1-.507-.9,4.864,4.864,0,0,1-.135-1.2V.606l2.361-.38V9.307a3.108,3.108,0,0,0,.048.571.982.982,0,0,0,.182.428.96.96,0,0,0,.388.285,2.127,2.127,0,0,0,.681.143l-.333,1.949A5.914,5.914,0,0,1,25.576,12.461Zm-7.393.238a6.933,6.933,0,0,1-1.466-.143,3.182,3.182,0,0,1-1.133-.468,2.136,2.136,0,0,1-.729-.848A2.927,2.927,0,0,1,14.6,9.957a2.432,2.432,0,0,1,.293-1.236,2.256,2.256,0,0,1,.785-.808A3.548,3.548,0,0,1,16.8,7.477a6.326,6.326,0,0,1,1.315-.135,7.524,7.524,0,0,1,.816.04,3.663,3.663,0,0,1,.578.1V7.263A1.307,1.307,0,0,0,19.15,6.3a1.765,1.765,0,0,0-1.268-.365,8.1,8.1,0,0,0-1.189.087,5.114,5.114,0,0,0-1.014.246l-.3-1.9q.206-.063.515-.135t.674-.127q.365-.055.769-.1t.816-.04a5.47,5.47,0,0,1,1.743.238,2.71,2.71,0,0,1,1.117.681,2.511,2.511,0,0,1,.594,1.078,5.317,5.317,0,0,1,.174,1.411v4.913q-.507.111-1.411.262A13.579,13.579,0,0,1,18.183,12.7Zm1.331-3.677q-.143-.032-.428-.063a4.766,4.766,0,0,0-.523-.032,4.717,4.717,0,0,0-.626.04,1.64,1.64,0,0,0-.515.151.882.882,0,0,0-.349.3.837.837,0,0,0-.127.475.81.81,0,0,0,.372.769,2.057,2.057,0,0,0,1.022.214q.348,0,.666-.016a4.523,4.523,0,0,0,.507-.048Zm-8.938.016q-.08-1.886-.238-3.8Q10.052,5.9,9.7,6.708T9.01,8.325q-.342.808-.66,1.545T7.81,11.13H6.082q-.223-.523-.541-1.26t-.66-1.545Q4.54,7.516,4.19,6.708T3.555,5.234q-.158,1.918-.238,3.8T3.19,12.525H.781q.063-1.3.151-2.774t.19-2.94q.1-1.466.238-2.821t.293-2.449H4.014q.286.523.659,1.292T5.452,4.5q.405.9.8,1.831L7,8.087l.747-1.759q.4-.935.8-1.831T9.33,2.833q.373-.769.659-1.292H12.24q.158,1.094.293,2.449t.238,2.821q.1,1.466.19,2.94t.151,2.774H10.7Q10.655,10.924,10.576,9.038Zm48.385,3.487H56.6V4.188h2.361Z" transform="translate(19437.842 6369.855)" fill="#81b03f" fill-rule="evenodd"/>
  </g>
</svg>
