<svg xmlns="http://www.w3.org/2000/svg" width="23.399" height="22.173" viewBox="0 0 23.399 22.173">
  <path id="star" d="M968.569,1819.152a1.067,1.067,0,0,1-.578-.17L962,1815.127,956,1818.983a1.07,1.07,0,0,1-1.21-.037,1.051,1.051,0,0,1-.392-1.136l1.877-6.6-5.6-4.7a1.051,1.051,0,0,1-.325-1.134,1.063,1.063,0,0,1,.935-.726l6.721-.48,3.024-6.568a1.067,1.067,0,0,1,1.935,0l3.024,6.568,6.721.48a1.063,1.063,0,0,1,.935.726,1.052,1.052,0,0,1-.325,1.134l-5.6,4.7,1.877,6.6a1.051,1.051,0,0,1-.392,1.136A1.065,1.065,0,0,1,968.569,1819.152Z" transform="translate(-950.297 -1796.98)" fill="#ffb51f"/>
</svg>
