<svg xmlns="http://www.w3.org/2000/svg" width="24.638" height="23.341" viewBox="0 0 24.638 23.341">
  <path id="star" d="M969.536,1820.32a1.121,1.121,0,0,1-.608-.179l-6.312-4.058-6.312,4.058a1.127,1.127,0,0,1-1.274-.038,1.107,1.107,0,0,1-.413-1.2l1.976-6.952-5.9-4.949a1.106,1.106,0,0,1-.342-1.193,1.118,1.118,0,0,1,.984-.764l7.076-.505,3.184-6.915a1.124,1.124,0,0,1,2.037,0l3.184,6.915,7.076.505a1.118,1.118,0,0,1,.984.764,1.107,1.107,0,0,1-.342,1.193l-5.9,4.949,1.976,6.952a1.107,1.107,0,0,1-.413,1.2A1.125,1.125,0,0,1,969.536,1820.32Zm-6.921-6.673a1.124,1.124,0,0,1,.609.179l4.428,2.847-1.365-4.8a1.106,1.106,0,0,1,.355-1.151l4.35-3.65-5-.357a1.12,1.12,0,0,1-.938-.646l-2.442-5.3-2.442,5.3a1.12,1.12,0,0,1-.938.646l-5,.357,4.35,3.65a1.106,1.106,0,0,1,.355,1.151l-1.365,4.8,4.427-2.847A1.124,1.124,0,0,1,962.615,1813.647Z" transform="translate(-950.297 -1796.979)" fill="#a9adb0"/>
</svg>
